<svg width="32" height="32" viewBox="0 0 32 32" fill="none" xmlns="http://www.w3.org/2000/svg">
<rect width="32" height="32" fill="#5232C3"/>
<path d="M19.9181 23.02H7.81813C7.55813 23.02 7.43813 22.86 7.43813 22.62C7.43813 20.38 9.13813 20.12 10.9581 20.12H18.8581C19.8781 20.12 21.6981 19.98 21.6981 18.6C21.6981 16.94 19.4381 16.86 18.2381 16.86H12.4781C9.43813 16.86 7.37813 15.7 7.37813 12.4C7.37813 9.26 9.55813 7.88 12.4781 7.88H23.7781C24.0381 7.88 24.1581 8.04 24.1581 8.28C24.1581 10.32 22.3781 10.78 20.6981 10.78H13.7981C12.6381 10.78 11.4181 10.84 11.4181 12.34C11.4181 13.86 12.5981 13.94 13.7981 13.94H19.9181C23.0581 13.94 25.8181 15 25.8181 18.6C25.8181 22.14 22.9181 23.02 19.9181 23.02Z" fill="white"/>
</svg>
